<svg xmlns="http://www.w3.org/2000/svg" fill="currentColor" viewBox="0 0 960 840"><path d="M955.2 833.7v-25.2h-77.5V708h-29.4v127.8h106.9zm-387.5 0h108.9v-25.2H597v-27.2h73.3v-23H597V733h79.6v-25h-109zm-238.8-62.9V731h41.9c6.2 0 10.4 0 14.6 2.1q6.3 3.2 6.3 6.3c2 2.1 2 6.3 2 10.5 0 6.3-2 12.6-6.2 14.6a40 40 0 0 1-16.7 4.2h-42zM299.5 708v127.8H329V796h44c16.7 0 29.3-4.2 37.7-10.5 8.3-6.3 12.5-18.9 12.5-33.5 0-10.5-2-21-6.3-27.3a39 39 0 0 0-16.7-14.6 93 93 0 0 0-27.3-4.2h-73.3zM50.3 806.4c-6.3-2-10.5-6.2-14.7-12.5a65 65 0 0 1 0-46.1q3.1-9.4 12.6-12.6c6.3-2 14.6-4.2 25.1-4.2s21 2.1 27.2 4.2a19 19 0 0 1 12.6 12.6 65 65 0 0 1 0 46c-2 6.4-6.3 10.5-14.7 12.6-2 4.2-12.5 4.2-23 4.2s-18.8 0-25.1-4.2m67 23a53 53 0 0 0 25.1-23c6.3-10.4 8.4-23 8.4-37.7 0-14.6-2-27.2-8.4-37.7a54 54 0 0 0-25.1-23 118 118 0 0 0-41.9-6.3c-16.7 0-31.4 2.1-41.9 6.3a53 53 0 0 0-25.1 23A72 72 0 0 0 0 768.7c0 14.7 2 27.3 8.4 37.7a54 54 0 0 0 25.1 23c10.5 4.3 25.2 6.4 42 6.4a85 85 0 0 0 41.8-6.3m720.6-513.2-69.2-4.2h-8.3v-23C760.4 129.9 630.4 0 471.3 0a289.5 289.5 0 0 0-280.7 224.1h-62.8c-4.2 0-6.3 2.1-8.4 4.2l-16.8 23s-2 2.2-2 4.2c0 2.1 2 6.3 6.2 6.3L176 266h8.3v23a289.6 289.6 0 0 0 289 289.1A289.5 289.5 0 0 0 754.2 354H817c4.2 0 6.3-2.1 8.4-4.2l16.7-23s2.1-2.1 2.1-4.2q0-6.3-6.2-6.3M473.4 31.4A256.6 256.6 0 0 1 728.9 287v21l-213.6-12.7 92.1-62.8c2.1 0 2.1-2 2.1-4.2 0-2-2-4.2-4.1-4.2h-377a252 252 0 0 1 245-192.7m0 511.1A256.6 256.6 0 0 1 217.8 287v-21l213.7 12.6-92.2 62.8c-2 0-2 2.1-2 4.2s2 4.2 4.1 4.2h377a253.5 253.5 0 0 1-245 192.7"/></svg>